HIERARCHY
ROOT Hips
{
	OFFSET 0.000000 0.000000 0.000000
	CHANNELS 6 Xposition Yposition Zposition Xrotation Yrotation Zrotation
	JOINT LeftUpLeg_virtual
	{
		OFFSET 0.000000 0.000000 0.000000
		CHANNELS 3 Xrotation Yrotation Zrotation
		JOINT LeftUpLeg
		{
			OFFSET 13.026900 -6.336304 -1.092800
			CHANNELS 3 Xrotation Yrotation Zrotation
			JOINT LeftLeg
			{
				OFFSET 0.524474 -46.096886 9.782700
				CHANNELS 3 Xrotation Yrotation Zrotation
				JOINT LeftFoot
				{
					OFFSET -0.524474 -53.427422 -12.948200
					CHANNELS 3 Xrotation Yrotation Zrotation
					JOINT LeftToeBase
					{
						OFFSET 0.192200 -14.009700 16.364100
						CHANNELS 3 Xrotation Yrotation Zrotation
						JOINT LeftToe_End
						{
							OFFSET -1.784700 -0.561700 9.474800
							CHANNELS 3 Xrotation Yrotation Zrotation
							End Site
							{
								OFFSET 0 0 0
							}
						}
					}
				}
			}
		}
	}
	JOINT RightUpLeg_virtual
	{
		OFFSET 0.000000 0.000000 0.000000
		CHANNELS 3 Xrotation Yrotation Zrotation
		JOINT RightUpLeg
		{
			OFFSET -12.883000 -6.336304 -1.092800
			CHANNELS 3 Xrotation Yrotation Zrotation
			JOINT RightLeg
			{
				OFFSET -0.524587 -46.096825 9.782800
				CHANNELS 3 Xrotation Yrotation Zrotation
				JOINT RightFoot
				{
					OFFSET 0.524587 -53.427383 -12.948300
					CHANNELS 3 Xrotation Yrotation Zrotation
					JOINT RightToeBase
					{
						OFFSET -0.192200 -14.009700 16.364100
						CHANNELS 3 Xrotation Yrotation Zrotation
						JOINT RightToe_End
						{
							OFFSET 1.784700 -0.561700 9.474800
							CHANNELS 3 Xrotation Yrotation Zrotation
							End Site
							{
								OFFSET 0 0 0
							}
						}
					}
				}
			}
		}
	}
	JOINT Spine_virtual
	{
		OFFSET 0.000000 0.000000 0.000000
		CHANNELS 3 Xrotation Yrotation Zrotation
		JOINT Spine
		{
			OFFSET 0.072000 7.257294 -0.789700
			CHANNELS 3 Xrotation Yrotation Zrotation
			JOINT Spine1
			{
				OFFSET 0.000000 12.508769 -0.658067
				CHANNELS 3 Xrotation Yrotation Zrotation
				JOINT Spine1_split
				{
					OFFSET 0.000000 12.508769 -0.658067
					CHANNELS 3 Xrotation Yrotation Zrotation
					JOINT Spine2
					{
						OFFSET 0.000000 12.508769 -0.658067
						CHANNELS 3 Xrotation Yrotation Zrotation
						JOINT Neck_virtual
						{
							OFFSET 0.000000 0.000000 0.000000
							CHANNELS 3 Xrotation Yrotation Zrotation
							JOINT Neck
							{
								OFFSET 0.000000 14.033295 7.520400
								CHANNELS 3 Xrotation Yrotation Zrotation
								JOINT Head
								{
									OFFSET 0.000000 8.198502 5.703100
									CHANNELS 3 Xrotation Yrotation Zrotation
									JOINT HeadTop_End
									{
										OFFSET 0.000000 17.760803 13.332701
										CHANNELS 3 Xrotation Yrotation Zrotation
										End Site
										{
											OFFSET 0 0 0
										}
									}
								}
							}
						}
						JOINT LeftShoulder_virtual
						{
							OFFSET 0.000000 0.000000 0.000000
							CHANNELS 3 Xrotation Yrotation Zrotation
							JOINT LeftShoulder
							{
								OFFSET 6.292450 5.785301 -0.669000
								CHANNELS 3 Xrotation Yrotation Zrotation
								JOINT LeftShoulder_split
								{
									OFFSET 6.292450 5.785301 -0.669000
									CHANNELS 3 Xrotation Yrotation Zrotation
									JOINT LeftArm
									{
										OFFSET 13.907140 -6.093903 1.965100
										CHANNELS 3 Xrotation Yrotation Zrotation
										JOINT LeftForeArm
										{
											OFFSET 34.140198 0.000000 0.000000
											CHANNELS 3 Xrotation Yrotation Zrotation
											JOINT LeftHand
											{
												OFFSET 40.960209 0.000000 0.000000
												CHANNELS 3 Xrotation Yrotation Zrotation
												End Site
												{
													OFFSET 0 0 0
												}
											}
										}
									}
								}
							}
						}
						JOINT RightShoulder_virtual
						{
							OFFSET 0.000000 0.000000 0.000000
							CHANNELS 3 Xrotation Yrotation Zrotation
							JOINT RightShoulder
							{
								OFFSET -6.292450 5.785301 -0.669000
								CHANNELS 3 Xrotation Yrotation Zrotation
								JOINT RightShoulder_split
								{
									OFFSET -6.292450 5.785301 -0.669000
									CHANNELS 3 Xrotation Yrotation Zrotation
									JOINT RightArm
									{
										OFFSET -13.907140 -6.093903 1.965100
										CHANNELS 3 Xrotation Yrotation Zrotation
										JOINT RightForeArm
										{
											OFFSET -34.140198 0.000000 0.000000
											CHANNELS 3 Xrotation Yrotation Zrotation
											JOINT RightHand
											{
												OFFSET -40.960209 0.000000 0.000000
												CHANNELS 3 Xrotation Yrotation Zrotation
												End Site
												{
													OFFSET 0 0 0
												}
											}
										}
									}
								}
							}
						}
					}
				}
			}
		}
	}
}
MOTION
Frames: 6
Frame Time: 0.03333333
7.861226 110.650482 -12.395542 0.000000 0.000000 0.000000 0.894176 -33.745434 -1.323109 -32.562548 10.385088 21.207244 22.429259 -11.873846 1.221487 4.837764 -10.953582 -15.071219 -0.615631 1.014805 2.095297 0.000000 0.000000 0.000000 -0.312471 -32.042726 -1.994040 7.406196 -27.089941 -6.376328 21.381234 9.001013 -1.990374 -24.980935 -20.209031 12.695820 0.603649 0.125444 -9.074553 0.000000 0.000000 0.000000 -3.039066 -28.201988 -4.010991 8.195161 2.892995 3.547517 9.793207 5.922105 -2.438290 0.000870 -0.381565 0.117410 0.000000 0.000000 0.000000 9.058537 7.736970 -1.376665 -29.039990 0.123486 1.299120 -42.804488 -47.571018 2.507079 0.000000 0.000000 0.000000 6.418931 6.273662 -2.986836 1.484525 4.405762 0.742305 -2.541446 6.024409 -5.846125 -33.803726 -3.564185 -74.939046 8.735479 -34.810366 3.642060 0.000000 0.000000 0.000000 9.815329 6.466906 -1.616104 1.745706 2.025592 -6.110205 -9.237511 -5.937733 8.844543 -15.192779 -13.707204 59.201600 -0.170531 19.056646 5.320850 0.000000 0.000000 0.000000 
7.540138 110.631554 -11.307552 0.000000 0.000000 0.000000 1.538200 -33.310283 -1.111855 -35.162811 11.677731 22.323795 21.642465 -11.101539 0.930003 6.826393 -11.566020 -14.818737 -0.148280 1.137743 2.378653 0.000000 0.000000 0.000000 0.590593 -31.745691 -1.728027 7.188469 -26.520351 -6.174920 21.741728 8.961370 -2.392940 -24.487096 -20.062181 13.952232 0.946090 0.125438 -9.142550 0.000000 0.000000 0.000000 -1.363569 -27.957265 -3.338125 8.513029 3.207841 3.426929 10.526285 6.015664 -2.679390 0.219445 -0.410767 0.229988 0.000000 0.000000 0.000000 9.050408 7.874162 -1.415990 -29.738968 0.265811 1.598539 -43.425113 -47.273180 1.681597 0.000000 0.000000 0.000000 6.880636 6.327378 -3.154416 1.441196 3.881873 0.754029 -1.609667 5.074139 -5.272823 -30.872786 -2.863254 -73.921908 9.283277 -36.679899 3.320272 0.000000 0.000000 0.000000 10.064397 6.747697 -1.635702 2.055992 3.308368 -5.420481 -10.213978 -2.946060 5.824745 -14.734325 -15.088702 59.236509 -0.212325 19.750402 5.061157 0.000000 0.000000 0.000000 
6.967967 110.134628 -10.602261 0.000000 0.000000 0.000000 3.034041 -33.054376 -0.454192 -40.211417 13.147592 23.805646 21.347264 -9.322180 1.154003 9.815958 -12.565412 -12.885676 0.288331 1.477479 2.254832 0.000000 0.000000 0.000000 2.417704 -30.730455 -1.178474 6.061553 -24.681601 -5.810633 23.548641 8.829578 -3.078112 -24.336891 -20.211643 15.170784 0.518441 0.206909 -9.225787 0.000000 0.000000 0.000000 0.185531 -26.743420 -2.862299 9.869450 3.464654 3.215148 11.237528 5.955846 -3.048331 0.319154 -0.502692 0.285214 0.000000 0.000000 0.000000 9.131866 7.885984 -1.626252 -30.952734 0.525024 2.480469 -44.382641 -46.219429 1.222861 0.000000 0.000000 0.000000 7.452023 6.229058 -3.492812 1.552002 2.191742 0.489473 -0.958601 4.067509 -3.972547 -24.476572 -2.366489 -70.794487 8.328382 -41.969518 1.537254 0.000000 0.000000 0.000000 10.186985 6.879893 -1.755250 2.176017 4.682467 -4.416895 -10.199622 -1.294941 2.976318 -12.669630 -14.677504 59.502689 -0.835328 22.244015 5.177312 0.000000 0.000000 0.000000 
6.298351 108.899277 -10.372005 0.000000 0.000000 0.000000 5.317518 -33.000127 0.427094 -47.188203 14.364655 25.478863 22.002023 -7.143262 1.843509 13.279777 -13.786391 -9.788478 0.454144 2.021709 1.842529 0.000000 0.000000 0.000000 4.987705 -29.302970 -0.500419 4.175332 -21.774570 -5.032692 26.397583 8.381097 -4.004232 -25.513673 -20.663057 15.298362 -0.417990 0.330585 -9.226481 0.000000 0.000000 0.000000 1.779945 -24.978972 -2.543551 11.915638 3.619772 2.831909 11.734331 5.765855 -3.446469 0.244806 -0.564336 0.267300 0.000000 0.000000 0.000000 9.373708 7.786006 -1.942424 -32.475159 0.872112 3.822628 -45.066643 -44.493188 1.340645 0.000000 0.000000 0.000000 8.036503 6.052529 -3.862644 1.765003 -0.263298 0.117589 -0.236590 3.043806 -2.740839 -16.050384 -1.186472 -66.074444 5.561870 -49.707634 -1.900142 0.000000 0.000000 0.000000 10.247739 6.846150 -1.938173 2.027787 5.912242 -3.102690 -9.715830 -1.131653 1.132380 -9.797497 -12.864253 59.386507 -2.130449 26.183571 5.763127 0.000000 0.000000 0.000000 
5.762566 106.921059 -10.227100 0.000000 0.000000 0.000000 8.174716 -32.986846 1.266333 -55.096483 14.983733 26.928931 24.072059 -4.915047 2.897068 16.785361 -14.820255 -5.985139 0.529636 2.803132 1.112959 0.000000 0.000000 0.000000 8.115852 -27.802066 0.152158 1.691060 -18.503727 -3.806386 30.369876 7.434484 -5.039580 -28.078448 -21.209626 13.943975 -1.322598 0.506944 -9.152195 0.000000 0.000000 0.000000 3.737207 -22.961677 -2.276875 14.240954 3.587208 2.272120 11.915445 5.500476 -3.771039 0.176652 -0.562172 0.173970 0.000000 0.000000 0.000000 9.760620 7.652282 -2.251824 -33.960032 1.292287 5.484690 -45.355810 -42.455189 1.861964 0.000000 0.000000 0.000000 8.550586 5.888631 -4.154030 2.059266 -3.105207 -0.274375 0.598770 1.699861 -1.470019 -7.328878 1.452267 -61.091411 0.885385 -58.023482 -7.256540 0.000000 0.000000 0.000000 10.340792 6.673885 -2.110727 1.653742 6.703070 -1.656666 -8.612902 -2.057864 0.103715 -7.004531 -10.332986 58.495707 -4.203143 31.055794 6.995984 0.000000 0.000000 0.000000 
5.373032 104.150352 -10.257168 0.000000 0.000000 0.000000 11.174048 -32.564085 1.834284 -63.343038 14.865801 27.867196 27.443401 -2.722175 3.993331 19.596948 -15.272800 -2.059041 0.890289 3.819346 -0.014118 0.000000 0.000000 0.000000 11.481795 -26.537848 0.668182 -1.577963 -15.616654 -2.483705 35.896312 6.221387 -6.012197 -30.829374 -21.243888 12.191993 -2.272396 0.787909 -9.192291 0.000000 0.000000 0.000000 6.573440 -20.896948 -1.954698 16.452035 3.338569 1.521591 11.714008 5.209546 -3.870594 0.109779 -0.479270 0.088592 0.000000 0.000000 0.000000 10.159322 7.577887 -2.388907 -35.179822 1.790953 7.223318 -45.349628 -40.626587 2.482566 0.000000 0.000000 0.000000 8.892991 5.799487 -4.173275 2.400789 -5.772830 -0.280337 0.701190 0.383780 -0.542760 -0.060071 4.875369 -57.526401 -5.563354 -64.788538 -14.416019 0.000000 0.000000 0.000000 10.576968 6.483560 -2.181687 1.250252 6.781343 -0.397525 -7.384131 -3.362410 0.008806 -5.213817 -8.012034 56.708342 -6.989194 35.931713 8.918204 0.000000 0.000000 0.000000 
